HIERARCHY
ROOT root     
{
	OFFSET 0.0000 0.0000 0.0000
	CHANNELS 6 Xposition Yposition Zposition Zrotation Yrotation Xrotation
	JOINT pelvis   
	{
		OFFSET 0.0000 0.0000 0.0000
		CHANNELS 3 Zrotation Yrotation Xrotation
		JOINT thorax   
		{
			OFFSET 0.0000 23.0750 -5.0000
			CHANNELS 3 Zrotation Yrotation Xrotation
			JOINT rclavicle
			{
				OFFSET 0.0000 28.0009 0.0000
				CHANNELS 3 Zrotation Yrotation Xrotation
				JOINT rhumerus 
				{
					OFFSET -18.5725 5.5939 0.0000
					CHANNELS 3 Zrotation Yrotation Xrotation
					JOINT rradius  
					{
						OFFSET -24.8459 0.0000 0.0000
						CHANNELS 3 Zrotation Yrotation Xrotation
						JOINT rhand    
						{
							OFFSET -24.5477 0.0000 0.0000
							CHANNELS 3 Zrotation Yrotation Xrotation
							End Site
							{
								OFFSET -8.1826 0.0000 0.0000
							}
						}
					}
				}
			}
			JOINT lclavicle
			{
				OFFSET 0.0000 28.0009 0.0000
				CHANNELS 3 Zrotation Yrotation Xrotation
				JOINT lhumerus 
				{
					OFFSET 18.5725 5.5939 0.0000
					CHANNELS 3 Zrotation Yrotation Xrotation
					JOINT lradius  
					{
						OFFSET 24.8459 0.0000 0.0000
						CHANNELS 3 Zrotation Yrotation Xrotation
						JOINT lhand    
						{
							OFFSET 24.5477 0.0000 0.0000
							CHANNELS 3 Zrotation Yrotation Xrotation
							End Site
							{
								OFFSET 8.1826 0.0000 0.0000
							}
						}
					}
				}
			}
			JOINT head     
			{
				OFFSET 0.0000 35.2030 0.0000
				CHANNELS 3 Zrotation Yrotation Xrotation
				End Site
				{
					OFFSET 0.0000 11.7343 0.0000
				}
			}
		}
		JOINT rfemur   
		{
			OFFSET -8.2817 0.0000 0.0000
			CHANNELS 3 Zrotation Yrotation Xrotation
			JOINT rtibia   
			{
				OFFSET 0.0000 -43.3627 0.0000
				CHANNELS 3 Zrotation Yrotation Xrotation
				JOINT rfoot    
				{
					OFFSET 0.0000 -38.2947 0.0000
					CHANNELS 3 Zrotation Yrotation Xrotation
					JOINT rtoes    
					{
						OFFSET 0.0000 0.0000 16.6054
						CHANNELS 3 Zrotation Yrotation Xrotation
						End Site
						{
							OFFSET 0.0000 0.0000 5.5351
						}
					}
				}
			}
		}
		JOINT lfemur   
		{
			OFFSET 8.2817 0.0000 0.0000
			CHANNELS 3 Zrotation Yrotation Xrotation
			JOINT ltibia   
			{
				OFFSET 0.0000 -43.3627 0.0000
				CHANNELS 3 Zrotation Yrotation Xrotation
				JOINT lfoot    
				{
					OFFSET 0.0000 -38.2947 0.0000
					CHANNELS 3 Zrotation Yrotation Xrotation
					JOINT ltoes    
					{
						OFFSET 0.0000 0.0000 16.6054
						CHANNELS 3 Zrotation Yrotation Xrotation
						End Site
						{
							OFFSET 0.0000 0.0000 5.5351
						}
					}
				}
			}
		}
	}
}
MOTION
Frames: 16
Frame Time: 0.008333
-86.9098 81.0746 112.4297 4.7400 74.1477 20.5594 0.0000 -0.0000 0.0000 -4.1821 -1.6639 1.7339 26.3328 -0.8496 -0.0000 40.5649 22.0155 -1.3849 -0.0000 53.3639 -0.0000 -3.1155 8.6139 -0.2347 -27.3102 8.6584 -0.0000 -39.1807 0.5651 6.3806 0.0000 -51.9538 -0.0000 -0.3367 8.8442 -0.0260 -3.0741 0.8596 -13.6086 -0.0437 -14.9978 -27.9652 -0.0000 -0.0000 69.8907 -0.0000 -17.2364 1.2672 -0.3931 0.0000 -60.9519 -9.6298 -2.4941 -41.6333 -0.0000 -0.0000 34.7193 -0.0082 9.4189 -2.9086 -0.4823 0.0000 -11.3476
-86.6731 80.9994 112.6144 4.2607 74.2161 20.5803 0.0000 -0.0000 0.0000 -4.0034 -1.6771 2.0859 26.3284 -0.8082 -0.0000 41.3167 21.6295 -1.2570 -0.0000 53.3695 -0.0000 -3.3383 8.9115 -0.2602 -27.3108 8.6202 -0.0000 -39.5415 0.5505 6.6076 0.0000 -52.3398 -0.0000 -0.0806 8.6422 -0.0061 -3.0486 0.9724 -14.2349 0.1717 -14.0952 -29.9939 -0.0000 -0.0000 70.6902 0.0000 -16.5194 0.4124 -0.1223 0.0000 -61.3715 -9.4692 -2.4266 -42.3079 -0.0000 -0.0000 35.5063 -0.0082 9.2854 -3.4294 -0.5603 0.0000 -11.2711
-86.4464 80.9320 112.8020 3.7735 74.2989 20.6042 0.0000 -0.0000 0.0000 -3.8271 -1.7083 2.4359 26.3302 -0.7822 -0.0000 42.0917 21.2192 -1.1275 -0.0000 53.2724 -0.0000 -3.5336 9.1973 -0.2843 -27.3037 8.5704 -0.0000 -39.9030 0.5763 6.8583 0.0000 -52.6508 -0.0000 0.1767 8.4523 0.0131 -3.0289 1.0837 -14.8289 0.3488 -13.1926 -31.9867 -0.0000 -0.0000 71.2393 0.0000 -15.7898 -0.3717 0.1051 0.0000 -61.9144 -9.3072 -2.3541 -42.9632 -0.0000 -0.0000 36.2275 -0.0082 9.1513 -3.9197 -0.6309 0.0000 -11.1557
-86.2323 80.8714 112.9956 3.2432 74.4023 20.6052 0.0000 -0.0000 0.0000 -3.6378 -1.7619 2.7729 26.3343 -0.7785 -0.0000 42.8857 20.7968 -0.9939 -0.0000 53.0621 -0.0000 -3.6901 9.4591 -0.3054 -27.2930 8.5179 -0.0000 -40.2615 0.6343 7.1427 0.0000 -52.8801 -0.0000 0.4290 8.2790 0.0311 -3.0215 1.1962 -15.3865 0.5025 -12.2951 -33.9502 -0.0000 -0.0000 71.5477 -0.0000 -15.0947 -1.0945 0.2952 -0.0000 -62.4511 -9.1337 -2.2772 -43.6151 -0.0000 -0.0000 36.8940 -0.0082 9.0135 -4.3838 -0.6947 0.0000 -11.0286
-86.0304 80.8168 113.1921 2.6726 74.5284 20.5864 0.0000 -0.0000 0.0000 -3.4344 -1.8412 3.0940 26.3366 -0.7845 -0.0000 43.6980 20.3459 -0.8745 -0.0000 52.7462 -0.0000 -3.7930 9.6815 -0.3213 -27.2800 8.4424 0.0000 -40.6142 0.7584 7.4470 0.0000 -53.0431 -0.0000 0.6668 8.1277 0.0474 -3.0282 1.3114 -15.9050 0.6323 -11.4151 -35.8818 -0.0000 -0.0000 71.6287 -0.0000 -14.4597 -1.7725 0.4570 0.0000 -62.8768 -8.9484 -2.2007 -44.2666 -0.0000 -0.0000 37.5090 -0.0082 8.8722 -4.8220 -0.7518 0.0000 -10.9266
-85.8423 80.7671 113.3936 2.0473 74.6779 20.5385 0.0000 -0.0000 0.0000 -3.2113 -1.9487 3.3947 26.3338 -0.8032 0.0000 44.5234 19.8766 -0.7673 -0.0000 52.3196 -0.0000 -3.8407 9.8564 -0.3313 -27.2661 8.3536 -0.0000 -40.9594 0.9387 7.7774 0.0000 -53.1341 -0.0000 0.8832 8.0005 0.0618 -3.0499 1.4325 -16.3862 0.7432 -10.5584 -37.7844 -0.0000 -0.0000 71.4953 -0.0000 -13.8970 -2.4206 0.5987 -0.0000 -63.1240 -8.7478 -2.1250 -44.9297 -0.0000 -0.0000 38.0813 -0.0082 8.7228 -5.2351 -0.8020 -0.0000 -10.8732
-85.6714 80.7216 113.6001 1.3148 74.8508 20.4207 0.0000 -0.0000 0.0000 -2.9509 -2.0851 3.6672 26.3233 -0.8465 0.0000 45.3543 19.4124 -0.6578 -0.0000 51.7719 -0.0000 -3.8415 9.9814 -0.3356 -27.2552 8.2763 0.0000 -41.2952 1.1438 8.1513 0.0000 -53.1383 -0.0000 1.0739 7.8967 0.0741 -3.0888 1.5630 -16.8350 0.8510 -9.7204 -39.6645 -0.0000 -0.0000 71.1562 0.0000 -13.4098 -3.0459 0.7258 0.0000 -63.1672 -8.5197 -2.0411 -45.6273 -0.0000 -0.0000 38.6286 -0.0082 8.5534 -5.6268 -0.8449 -0.0000 -10.8712
-85.5157 80.6796 113.8106 0.5069 75.0435 20.2566 0.0000 -0.0000 0.0000 -2.6655 -2.2496 3.9186 26.3015 -0.8953 -0.0000 46.1889 18.9280 -0.5671 -0.0000 51.1199 -0.0000 -3.7941 10.0525 -0.3338 -27.2444 8.1844 0.0000 -41.6230 1.4135 8.5454 0.0000 -53.0758 -0.0000 1.2299 7.8182 0.0840 -3.1391 1.7025 -17.2560 0.9427 -8.9166 -41.5104 -0.0000 -0.0000 70.6245 -0.0000 -12.9722 -3.6547 0.8413 0.0000 -63.0228 -8.2721 -1.9561 -46.3523 -0.0000 -0.0000 39.1499 -0.0082 8.3658 -5.9938 -0.8798 0.0000 -10.9346
-85.3736 80.6403 114.0220 -0.3668 75.2530 20.0521 0.0000 -0.0000 0.0000 -2.3598 -2.4420 4.1562 26.2690 -0.9519 0.0000 47.0192 18.4309 -0.4893 -0.0000 50.3646 -0.0000 -3.7115 10.0757 -0.3273 -27.2322 8.0892 -0.0000 -41.9434 1.7320 8.9648 0.0000 -52.9406 -0.0000 1.3482 7.7626 0.0915 -3.1957 1.8505 -17.6577 1.0147 -8.1568 -43.3145 -0.0000 -0.0000 69.9110 0.0000 -12.5543 -4.2418 0.9437 0.0000 -62.7442 -8.0074 -1.8724 -47.1039 -0.0000 -0.0000 39.6493 -0.0082 8.1594 -6.3351 -0.9064 -0.0000 -11.0609
-85.2449 80.6033 114.2374 -1.3266 75.4780 19.7863 0.0000 -0.0000 0.0000 -2.0291 -2.6603 4.3866 26.2272 -1.0288 -0.0000 47.8343 17.9416 -0.4064 -0.0000 49.5003 -0.0000 -3.6115 10.0623 -0.3180 -27.2192 8.0174 -0.0000 -42.2572 2.0601 9.4272 0.0000 -52.7164 -0.0000 1.4289 7.7260 0.0965 -3.2558 2.0063 -18.0509 1.0743 -7.4438 -45.0691 -0.0000 -0.0000 69.0237 -0.0000 -12.1292 -4.7901 1.0281 -0.0000 -62.4170 -7.7215 -1.7871 -47.8864 -0.0000 -0.0000 40.1368 -0.0082 7.9301 -6.6530 -0.9246 -0.0000 -11.2336
-85.1243 80.5682 114.4529 -2.3106 75.7156 19.5044 0.0000 -0.0000 0.0000 -1.6959 -2.9020 4.6250 26.1764 -1.1024 0.0000 48.6300 17.4225 -0.3436 -0.0000 48.5532 -0.0000 -3.4974 10.0207 -0.3067 -27.2004 7.9307 0.0000 -42.5677 2.4515 9.8983 0.0000 -52.4318 -0.0000 1.4670 7.7078 0.0981 -3.3096 2.1640 -18.4415 1.1076 -6.7992 -46.7553 -0.0000 -0.0000 67.9789 0.0000 -11.6607 -5.2817 1.0883 -0.0000 -62.1457 -7.4275 -1.7135 -48.6782 -0.0000 -0.0000 40.6052 -0.0082 7.6891 -6.9449 -0.9353 -0.0000 -11.4459
-85.0112 80.5347 114.6683 -3.3395 75.9639 19.1854 0.0000 -0.0000 0.0000 -1.3557 -3.1631 4.8799 26.1216 -1.1970 -0.0000 49.3920 16.9093 -0.2679 -0.0000 47.5109 -0.0000 -3.3902 9.9686 -0.2958 -27.1772 7.8757 0.0000 -42.8748 2.8352 10.4125 0.0000 -52.0571 -0.0000 1.4695 7.7022 0.0980 -3.3551 2.3211 -18.8426 1.1110 -6.2092 -48.3677 -0.0000 -0.0000 66.7657 0.0000 -11.1434 -5.6609 1.1131 -0.0000 -62.2828 -7.1207 -1.6496 -49.4817 -0.0000 -0.0000 41.0617 -0.0082 7.4380 -7.2131 -0.9391 0.0000 -11.6791
-84.8980 80.5018 114.8827 -4.3402 76.2272 18.8797 0.0000 -0.0000 0.0000 -1.0326 -3.4443 5.1712 26.0652 -1.2877 0.0000 50.1166 16.3579 -0.2075 -0.0000 46.4036 -0.0000 -3.2879 9.9145 -0.2853 -27.1437 7.8053 -0.0000 -43.1823 3.2764 10.9279 0.0000 -51.6278 -0.0000 1.4339 7.7089 0.0966 -3.3819 2.4697 -19.2570 1.1048 -5.7216 -49.8819 -0.0000 -0.0000 65.4438 0.0000 -10.5322 -5.9737 1.1085 0.0000 -62.4755 -6.8148 -1.6122 -50.2664 -0.0000 -0.0000 41.4996 -0.0082 7.1891 -7.4608 -0.9383 -0.0000 -11.9215
-84.7839 80.4687 115.0971 -5.3259 76.5066 18.5722 0.0000 -0.0000 0.0000 -0.7246 -3.7432 5.5081 26.0138 -1.4019 -0.0000 50.7919 15.8052 -0.1270 -0.0000 45.2192 -0.0000 -3.2039 9.8708 -0.2767 -27.0996 7.7681 -0.0000 -43.4908 3.7016 11.4813 0.0000 -51.1140 -0.0000 1.3712 7.7224 0.0926 -3.3884 2.6067 -19.6955 1.0930 -5.3246 -51.2938 -0.0000 -0.0000 64.0213 -0.0000 -9.8612 -6.1655 1.0696 0.0000 -62.9720 -6.5058 -1.6018 -51.0314 -0.0000 -0.0000 41.9246 -0.0082 6.9467 -7.6927 -0.9344 -0.0000 -12.1599
-84.6661 80.4347 115.3135 -6.2943 76.8055 18.2571 0.0000 -0.0000 0.0000 -0.4361 -4.0550 5.8968 25.9678 -1.5208 0.0000 51.4162 15.2152 -0.0491 -0.0000 43.9839 -0.0000 -3.1301 9.8391 -0.2695 -27.0428 7.7251 0.0000 -43.8028 4.1653 12.0362 0.0000 -50.5472 -0.0000 1.2824 7.7426 0.0868 -3.3693 2.7258 -20.1587 1.0962 -5.0138 -52.5959 -0.0000 -0.0000 62.5427 -0.0000 -9.2459 -6.1996 1.0071 0.0000 -63.7181 -6.1930 -1.6201 -51.7675 -0.0000 -0.0000 42.3398 -0.0082 6.7147 -7.9139 -0.9287 -0.0000 -12.3929
-84.5416 80.3976 115.5319 -7.2209 77.1304 17.9502 0.0000 -0.0000 0.0000 -0.1765 -4.3809 6.3456 25.9307 -1.6450 0.0000 51.9881 14.5812 0.0261 -0.0000 42.7089 -0.0000 -3.0612 9.8178 -0.2630 -26.9689 7.6730 0.0000 -44.1219 4.6719 12.5845 0.0000 -49.9341 -0.0000 1.1739 7.7679 0.0797 -3.3197 2.8232 -20.6474 1.1284 -4.7967 -53.7759 -0.0000 -0.0000 61.0786 -0.0000 -8.7276 -6.1712 0.9455 0.0000 -64.1141 -5.8805 -1.6748 -52.4639 -0.0000 -0.0000 42.7473 -0.0082 6.4978 -8.1314 -0.9230 -0.0000 -12.6176
